<?xml version="1.0" encoding="UTF-8" standalone="no"?>
<!-- Created with Inkscape (http://www.inkscape.org/) -->

<svg
   xmlns:dc="http://purl.org/dc/elements/1.1/"
   xmlns:cc="http://creativecommons.org/ns#"
   xmlns:rdf="http://www.w3.org/1999/02/22-rdf-syntax-ns#"
   xmlns:svg="http://www.w3.org/2000/svg"
   xmlns="http://www.w3.org/2000/svg"
   xmlns:sodipodi="http://sodipodi.sourceforge.net/DTD/sodipodi-0.dtd"
   xmlns:inkscape="http://www.inkscape.org/namespaces/inkscape"
   width="74"
   height="16"
   id="svg3540"
   version="1.1"
   inkscape:version="0.48.5 r10040"
   sodipodi:docname="galenvs.svg">
  <defs
     id="defs3542" />
  <sodipodi:namedview
     id="base"
     pagecolor="#ffffff"
     bordercolor="#666666"
     borderopacity="1.0"
     inkscape:pageopacity="0.0"
     inkscape:pageshadow="2"
     inkscape:zoom="1"
     inkscape:cx="-148.18217"
     inkscape:cy="15.776087"
     inkscape:document-units="px"
     inkscape:current-layer="layer1"
     showgrid="false"
     inkscape:showpageshadow="false"
     inkscape:window-width="1366"
     inkscape:window-height="707"
     inkscape:window-x="0"
     inkscape:window-y="27"
     inkscape:window-maximized="1" />
  <metadata
     id="metadata3545">
    <rdf:RDF>
      <cc:Work
         rdf:about="">
        <dc:format>image/svg+xml</dc:format>
        <dc:type
           rdf:resource="http://purl.org/dc/dcmitype/StillImage" />
        <dc:title />
      </cc:Work>
    </rdf:RDF>
  </metadata>
  <g
     inkscape:label="Camada 1"
     inkscape:groupmode="layer"
     id="layer1"
     transform="translate(0,-1036.3622)">
    <g
       id="g4951"
       transform="translate(-2822,913.98703)"
       style="fill:#ab37c8;fill-opacity:1">
      <path
         inkscape:connector-curvature="0"
         style="fill:#ab37c8;fill-opacity:1;stroke:none"
         d="m 2892,122.38799 0,1 c 1.662,0 3,1.338 3,3 l 1,0 c 0,-2.216 -1.784,-4 -4,-4 z"
         id="path4939" />
      <path
         id="path4941"
         d="m 2892,122.38799 0,1 c -1.662,0 -3,1.338 -3,3 l -1,0 c 0,-2.216 1.784,-4 4,-4 z"
         style="fill:#ab37c8;fill-opacity:1;stroke:none"
         inkscape:connector-curvature="0" />
      <path
         inkscape:connector-curvature="0"
         style="fill:#ab37c8;fill-opacity:1;stroke:none"
         d="m 2892,130.93665 0,-1.14387 c -1.3743,-0.68738 -3,-1.74279 -3,-3.40479 l -1,0 c 0,2.40783 2.0078,3.42967 4,4.54866 z"
         id="path4943"
         sodipodi:nodetypes="ccccc" />
      <path
         inkscape:connector-curvature="0"
         id="path4945"
         d="m 2892,138.37517 0,-1 c -1.662,0 -3,-1.338 -3,-3 l -1,0 c 0,2.216 1.784,4 4,4 z"
         style="fill:#ab37c8;fill-opacity:1;stroke:none" />
      <path
         inkscape:connector-curvature="0"
         style="fill:#ab37c8;fill-opacity:1;stroke:none"
         d="m 2892,138.37517 0,-1 c 1.662,0 3,-1.338 3,-3 l 1,0 c 0,2.216 -1.784,4 -4,4 z"
         id="path4947" />
      <path
         sodipodi:nodetypes="ccccc"
         id="path4949"
         d="m 2891.9964,129.79564 0,1.14387 c 1.3743,0.68738 3,1.78288 3,3.44488 l 1,0 c 0,-2.40783 -2.0078,-3.46976 -4,-4.58875 z"
         style="fill:#ab37c8;fill-opacity:1;stroke:none"
         inkscape:connector-curvature="0" />
    </g>
    <path
       inkscape:connector-curvature="0"
       id="path4923"
       d="m 39.99977,1036.363 c -2.2091,0 -3.9998,1.7909 -3.9998,4 l 0,7.2814 0,0.7187 c 0,0.2121 0.031,0.4219 0.062,0.6251 0,0.023 0.027,0.04 0.032,0.062 0.01,0.04 -0.01,0.086 0,0.125 0.037,0.1728 0.099,0.3361 0.1563,0.5 0.076,0.2181 0.1703,0.4259 0.2812,0.625 0.012,0.021 0.019,0.042 0.031,0.062 0.099,0.1715 0.1893,0.3458 0.3123,0.5 0.01,0.012 0.022,0.02 0.032,0.031 0,0.01 0.027,0 0.031,0 0.1493,0.1811 0.2903,0.3476 0.4687,0.5 0.1665,0.1421 0.3428,0.2614 0.5312,0.375 0.052,0.032 0.1028,0.064 0.1562,0.094 0.1333,0.072 0.2644,0.1616 0.4063,0.2188 0.03,0.012 0.063,0.02 0.094,0.031 0.1919,0.072 0.3892,0.1144 0.5936,0.1562 0.267,0.056 0.5284,0.094 0.8124,0.094 2.2091,0 3.9998,-1.7909 3.9998,-4 l 0,-1.0001 -1,0 0,1.0001 c 0,1.6568 -1.343,3 -2.9998,3 -0.207,0 -0.3983,-0.023 -0.5936,-0.062 -0.3906,-0.08 -0.7745,-0.2219 -1.0937,-0.4375 -0.4711,-0.3183 -0.8335,-0.7853 -1.0624,-1.3125 0,-0.01 0,-0.022 0,-0.031 -0.1518,-0.3589 -0.25,-0.7421 -0.25,-1.1563 l 0,-0.3125 5.9995,-6.0001 1,-1 0,-0.6875 c 0,-0.2225 -0.028,-0.4436 -0.062,-0.6563 -0.01,-0.053 -0.021,-0.104 -0.031,-0.1562 -0.039,-0.1846 -0.094,-0.3569 -0.1563,-0.5313 -0.074,-0.2079 -0.1752,-0.4033 -0.2812,-0.5937 0,-0.01 0,-0.023 0,-0.031 -0.01,-0.013 -0.024,-0.018 -0.032,-0.031 -0.099,-0.1716 -0.1894,-0.3459 -0.3124,-0.5 -0.01,-0.012 -0.022,-0.02 -0.031,-0.031 -0.01,-0.01 -0.027,0.01 -0.031,0 -0.1493,-0.1812 -0.2903,-0.3477 -0.4688,-0.5001 -0.1663,-0.142 -0.3428,-0.2614 -0.5311,-0.375 -0.012,-0.01 -0.019,-0.024 -0.031,-0.031 -0.1507,-0.09 -0.3058,-0.1805 -0.4686,-0.25 -0.051,-0.022 -0.1039,-0.043 -0.1563,-0.062 -0.1887,-0.071 -0.3926,-0.1141 -0.5937,-0.1562 -0.2658,-0.056 -0.5297,-0.094 -0.8125,-0.094 z m 0,1 c 0.4141,0 0.7972,0.098 1.1561,0.25 0.3589,0.1518 0.6973,0.3535 0.9687,0.625 0.5428,0.5429 0.8749,1.2966 0.8749,2.125 l 0,0.2813 -5.9996,6.0001 0,-6.2814 c 0,-1.6568 1.3431,-3 2.9999,-3 z"
       style="fill:#ab37c8;fill-opacity:1;stroke:none" />
    <path
       inkscape:connector-curvature="0"
       id="path4925"
       d="m 25.99997,1036.3624 0,14.9688 0,1 0,0.031 1,0 0,-0.031 7,0 0,-1 -7,0 0,-14.9688 -1,0 z"
       style="fill:#ab37c8;fill-opacity:1;stroke:none" />
    <path
       inkscape:connector-curvature="0"
       id="path4927"
       d="m 23.99997,1036.3622 -1,2 -7,14 1.1249,0 5.8751,-11.7812 0,11.7812 1,0 0,-13.7812 0,-2.2188 z"
       style="fill:#ab37c8;fill-opacity:1;stroke:none" />
    <path
       inkscape:connector-curvature="0"
       id="path4929"
       d="m 55.99997,1036.3622 0,13.7813 0,2.2187 0.9999,-2 7.0001,-14 -1.125,0 -5.8751,11.7813 0,-11.7813 -0.9999,0 z"
       style="fill:#ab37c8;fill-opacity:1;stroke:none" />
    <path
       id="path4931"
       d="m 45.99997,1036.3622 0,2.0273 0,13.9415 1,0 0,-12.1949 7,12.2261 0,-2.0273 0,-13.9727 -1,0 0,12.2261 -7,-12.2261 z"
       style="fill:#ab37c8;fill-opacity:1;stroke:none"
       inkscape:connector-curvature="0" />
    <g
       style="fill:#ab37c8;fill-opacity:1"
       transform="translate(-4872,787.9872)"
       id="g4933">
      <path
         style="fill:#ab37c8;fill-opacity:1;stroke:none"
         d="m 4888,256.35861 -0.4311,1 -3.5689,0 0,-1 z"
         id="path4935"
         inkscape:connector-curvature="0"
         sodipodi:nodetypes="ccccc" />
      <path
         style="fill:#ab37c8;fill-opacity:1;stroke:none"
         d="m 4880,248.375 c -4.4183,0 -8,3.58172 -8,8 0,4.41828 3.5817,8 8,8 4.4183,0 8,-3.58172 8,-8 l -1,0 c 0,3.86599 -3.134,7 -7,7 -3.866,0 -7,-3.13401 -7,-7 0,-3.86599 3.134,-7 7,-7 l 0,-1 z"
         id="path4937"
         inkscape:connector-curvature="0" />
    </g>
  </g>
</svg>
